<?xml version="1.0" encoding="UTF-8"?>
<svg version="1.1" viewBox="0 0 47.318 29.875" xmlns="http://www.w3.org/2000/svg" xmlns:xlink="http://www.w3.org/1999/xlink">
 <defs>
  <radialGradient id="a" cx="28.45" cy="-2.3999" r="3.8875" gradientTransform="matrix(11.188 0 0 11.188 237.85 560.78)" gradientUnits="userSpaceOnUse">
   <stop stop-color="#f7e35e" offset="0"/>
   <stop stop-color="#b6952a" offset=".7294"/>
   <stop stop-color="#805f1c" offset="1"/>
  </radialGradient>
  <linearGradient id="b" x1="307.43" x2="306.42" y1="658.59" y2="539.39" gradientTransform="matrix(.081717 0 0 .081717 19.778 630.06)" gradientUnits="userSpaceOnUse">
   <stop stop-color="#fc0" offset="0"/>
   <stop stop-color="#a80" offset="1"/>
  </linearGradient>
  <linearGradient id="c" x1="27.531" x2="44.664" y1="671.5" y2="671.5" gradientUnits="userSpaceOnUse">
   <stop stop-color="#112b00" offset="0"/>
   <stop stop-color="#008033" stop-opacity="0" offset="1"/>
  </linearGradient>
  <linearGradient id="g" x1="53.862" x2="48.622" y1="665.3" y2="680.07" gradientUnits="userSpaceOnUse">
   <stop stop-color="#045" offset="0"/>
   <stop stop-color="#045" stop-opacity="0" offset="1"/>
  </linearGradient>
  <linearGradient id="h" x1="64.406" x2="45.844" y1="659.43" y2="669.15" gradientUnits="userSpaceOnUse">
   <stop stop-color="#a80" offset="0"/>
   <stop stop-color="#806600" stop-opacity="0" offset="1"/>
  </linearGradient>
  <linearGradient id="i" x1="29.265" x2="45.41" y1="662.74" y2="671.26" gradientUnits="userSpaceOnUse">
   <stop stop-color="#500" offset="0"/>
   <stop stop-color="#500" stop-opacity="0" offset="1"/>
  </linearGradient>
 </defs>
 <g transform="translate(-21.55 -656.56)">
  <g transform="matrix(1 0 0 1.035 2.2719e-7 -24.023)">
   <path d="m44.749 672.44c-0.75678-17.87 17.022-19.037 20.715-6.7212 0.15507 0.35574-0.56187 0.81397-0.56187 0.81397-7.5873-5.0982-10.859-2.5858-12.88 8.7993l1.0779 4.4509z" fill="#fc0" stroke-width="0"/>
   <path d="m56.889 658.83c-2.6754-0.48438-5.4829 0.28459-7.6152 2.4453-2.0678 2.0953-3.5062 5.5867-3.3867 10.674l5.2832 4.6445-0.24023-0.99414a1.1236 1.1236 0 0 1 -0.01367 -0.46093c1.0263-5.7813 2.2759-9.5252 4.8145-11.303 1.2693-0.88877 2.8524-1.1251 4.4805-0.77344 1.1 0.2376 2.2789 0.79236 3.5117 1.4824-1.4827-3.2642-4.0476-5.2104-6.834-5.7148z" fill="url(#h)" stroke-width="0"/>
   <g transform="matrix(-.052746 .053232 .052535 .053446 36.405 630.77)">
    <g transform="matrix(.97497 .22232 -.22232 .97497 -372.63 -29.708)">
     <path transform="matrix(.96587 -.25903 .25903 .96587 0 0)" d="m437.73 670.82a34.32 34.32 0 0 1 -34.32 34.32 34.32 34.32 0 0 1 -34.32 -34.32 34.32 34.32 0 0 1 34.32 -34.32 34.32 34.32 0 0 1 34.32 34.32z" color="#000000" fill="#5c4a10" stroke-width="0"/>
     <path d="m567.93 568.58h-8.4192c-5.2445-1.0909-9.7198-3.5383-13.44-7.2584-5.1886-5.1886-7.8178-11.202-7.8178-17.859 0-7.1046 2.6292-13.062 7.8178-17.929 4.8669-4.8529 10.657-7.2584 17.37-7.2584 7.0486 0 13.062 2.4055 17.873 7.2584 4.8529 4.8669 7.2584 10.825 7.2584 17.929 0 6.657-2.4055 12.671-7.2584 17.859-3.7201 3.7201-8.1954 6.1676-13.384 7.2584z" fill="url(#a)" fill-rule="evenodd"/>
    </g>
    <g fill="#5c4a10">
     <path transform="matrix(.99928 -.037815 .037815 .99928 0 0)" d="m41.236 627.05a9.0668 9.0668 0 0 1 -9.0668 9.0668 9.0668 9.0668 0 0 1 -9.0668 -9.0668 9.0668 9.0668 0 0 1 9.0668 -9.0668 9.0668 9.0668 0 0 1 9.0668 9.0668z" color="#000000" stroke-width="0"/>
     <path d="m51.715 630.14c-5.424 7.4733-4.31 18.8 2.6465 24.926 5.2428-0.97114 8.5358-1.2836 2.9043-4.6719-4.0807-4.3316-4.7742-11.359-1.6445-16.416-1.1194-0.68443-2.7521-6.9166-3.9062-3.8379z"/>
    </g>
   </g>
   <path d="m36.034 678.35c1.8819 0.53952 4.4767-2.2681 4.4767-2.2681s3.1015 2.6266 4.4767 2.5881c1.3752-0.0386 4.4767-2.8018 4.4767-2.8018s2.9516 3.0273 4.512 2.4818c0 0-0.39381 2.7402 0 5.5427-6.6317 2.2236-11.664 2.2051-17.942 0 1.11-2.9525 0-5.5427 0-5.5427z" fill="#5c4a10" stroke-width="0"/>
   <path d="m49.461 674.98a0.88623 0.88623 0 0 0 -0.6543 0.29101s-0.75316 0.8296-1.6621 1.6543c-0.45448 0.41234-0.94684 0.82051-1.373 1.1074-0.4262 0.28691-0.8241 0.40468-0.81055 0.4043 0.01746-4.9e-4 -0.36366-0.0924-0.78516-0.35547-0.4215-0.26306-0.91236-0.64533-1.3652-1.0352-0.90576-0.77966-1.6562-1.5742-1.6562-1.5742a0.88623 0.88623 0 0 0 -1.2949 8e-3s-0.59922 0.64323-1.3984 1.2168c-0.79922 0.57357-1.7377 0.92862-2.1836 0.80078a0.88623 0.88623 0 0 0 -1.0586 1.2012s0.96579 2.2703-0.01563 4.8809a0.88623 0.88623 0 0 0 0.53711 1.1484c6.4163 2.2537 11.756 2.2709 18.518 4e-3a0.88623 0.88623 0 0 0 0.5957 -0.96289c-0.37141-2.643 0-5.293 0-5.293a0.88623 0.88623 0 0 0 -1.1699 -0.96289c-0.06681 0.0234-0.33717 0.0247-0.72852-0.13867-0.39134-0.16335-0.8632-0.45681-1.2949-0.77539-0.86344-0.63718-1.5625-1.3516-1.5625-1.3516a0.88623 0.88623 0 0 0 -0.63672 -0.26757z" fill="url(#b)" stroke-width="0"/>
   <path d="m44.722 673.67c2.714-12.188-8.2466-21.479-19.768-7.9636-0.15507 0.35575 0.56187 0.81398 0.56187 0.81398 8.5367-4.0086 11.058 4.4035 11.802 13.25z" fill="#d40000" stroke-width="0"/>
   <g transform="matrix(.052746 .053232 -.052535 .053446 54.013 630.76)">
    <g transform="matrix(.97497 .22232 -.22232 .97497 -372.63 -29.708)">
     <path transform="matrix(.96587 -.25903 .25903 .96587 0 0)" d="m437.73 670.82a34.32 34.32 0 0 1 -34.32 34.32 34.32 34.32 0 0 1 -34.32 -34.32 34.32 34.32 0 0 1 34.32 -34.32 34.32 34.32 0 0 1 34.32 34.32z" color="#000000" fill="#5c4a10" stroke-width="0"/>
     <path d="m567.93 568.58h-8.4192c-5.2445-1.0909-9.7198-3.5383-13.44-7.2584-5.1886-5.1886-7.8178-11.202-7.8178-17.859 0-7.1046 2.6292-13.062 7.8178-17.929 4.8669-4.8529 10.657-7.2584 17.37-7.2584 7.0486 0 13.062 2.4055 17.873 7.2584 4.8529 4.8669 7.2584 10.825 7.2584 17.929 0 6.657-2.4055 12.671-7.2584 17.859-3.7201 3.7201-8.1954 6.1676-13.384 7.2584z" fill="url(#a)" fill-rule="evenodd"/>
    </g>
    <g fill="#5c4a10">
     <path transform="matrix(.99928 -.037815 .037815 .99928 0 0)" d="m41.236 627.05a9.0668 9.0668 0 0 1 -9.0668 9.0668 9.0668 9.0668 0 0 1 -9.0668 -9.0668 9.0668 9.0668 0 0 1 9.0668 -9.0668 9.0668 9.0668 0 0 1 9.0668 9.0668z" color="#000000" stroke-width="0"/>
     <path d="m51.715 630.14c-5.424 7.4733-4.31 18.8 2.6465 24.926 5.2428-0.97114 8.5358-1.2836 2.9043-4.6719-4.0807-4.3316-4.7742-11.359-1.6445-16.416-1.1194-0.68443-2.7521-6.9166-3.9062-3.8379z"/>
    </g>
   </g>
   <path d="m36.885 660.27c-2.4931-0.21269-5.6576 1.009-9.0723 4.2656 1.1893-0.23952 2.3185-0.29998 3.3359-0.0449 1.7849 0.44745 3.1825 1.6432 4.1934 3.1719 1.6857 2.5491 2.4066 6.1212 2.8516 9.8301l5.377-4.4297c0.68178-3.4152 0.25439-6.5311-0.9668-8.793-1.2647-2.3424-3.2487-3.7893-5.7188-4z" fill="url(#i)" stroke-width="0"/>
   <path d="m53.551 680.57c1.0193-8.389 6.8777-12.001 11.721-0.79411l0.94577-0.55876c0.09695-22.746-25.646-20.108-21.73 2.3916z" fill="#2c5aa0" stroke-width="0"/>
   <path d="m54.074 664.88c-4.8013 0.50863-9.5165 5.371-8.3027 15.148l6.832-0.69336c0.31228-1.7437 0.77172-3.3428 1.4766-4.623 0.86353-1.5685 2.058-2.8082 3.6484-3.2363 1.5905-0.42817 3.3539 0.14213 4.8164 1.4551 0.67085 0.60225 1.3069 1.402 1.9277 2.3242-0.52971-3.322-1.7277-5.7861-3.2324-7.459-2.0515-2.2808-4.6541-3.1821-7.166-2.916z" fill="url(#g)" stroke-width="0"/>
   <g transform="matrix(-.081702 -.0015475 -.0015475 .081702 71.407 627.63)">
    <g transform="matrix(.97497 .22232 -.22232 .97497 -372.63 -29.708)">
     <path transform="matrix(.96587 -.25903 .25903 .96587 0 0)" d="m437.73 670.82a34.32 34.32 0 0 1 -34.32 34.32 34.32 34.32 0 0 1 -34.32 -34.32 34.32 34.32 0 0 1 34.32 -34.32 34.32 34.32 0 0 1 34.32 34.32z" color="#000000" fill="#5c4a10" stroke-width="0"/>
     <path d="m567.93 568.58h-8.4192c-5.2445-1.0909-9.7198-3.5383-13.44-7.2584-5.1886-5.1886-7.8178-11.202-7.8178-17.859 0-7.1046 2.6292-13.062 7.8178-17.929 4.8669-4.8529 10.657-7.2584 17.37-7.2584 7.0486 0 13.062 2.4055 17.873 7.2584 4.8529 4.8669 7.2584 10.825 7.2584 17.929 0 6.657-2.4055 12.671-7.2584 17.859-3.7201 3.7201-8.1954 6.1676-13.384 7.2584z" fill="url(#a)" fill-rule="evenodd"/>
    </g>
    <g fill="#5c4a10">
     <path transform="matrix(.99928 -.037815 .037815 .99928 0 0)" d="m41.236 627.05a9.0668 9.0668 0 0 1 -9.0668 9.0668 9.0668 9.0668 0 0 1 -9.0668 -9.0668 9.0668 9.0668 0 0 1 9.0668 -9.0668 9.0668 9.0668 0 0 1 9.0668 9.0668z" color="#000000" stroke-width="0"/>
     <path d="m51.715 630.14c-5.424 7.4733-4.31 18.8 2.6465 24.926 5.2428-0.97114 8.5358-1.2836 2.9043-4.6719-4.0807-4.3316-4.7742-11.359-1.6445-16.416-1.1194-0.68443-2.7521-6.9166-3.9062-3.8379z"/>
    </g>
   </g>
   <path d="m36.492 679.32c-3.5612-8.2341-7.0596-8.5101-9.5615 1.2742l-0.81874-0.23049c-2.4318-22.369 17.963-24.228 20.27-0.0663z" fill="#008033" stroke-width="0"/>
   <g transform="matrix(.081067 -.010282 .010282 .081067 15.384 631.04)">
    <g transform="matrix(.97497 .22232 -.22232 .97497 -372.63 -29.708)">
     <path transform="matrix(.96587 -.25903 .25903 .96587 0 0)" d="m437.73 670.82a34.32 34.32 0 0 1 -34.32 34.32 34.32 34.32 0 0 1 -34.32 -34.32 34.32 34.32 0 0 1 34.32 -34.32 34.32 34.32 0 0 1 34.32 34.32z" color="#000000" fill="#5c4a10" stroke-width="0"/>
     <path d="m567.93 568.58h-8.4192c-5.2445-1.0909-9.7198-3.5383-13.44-7.2584-5.1886-5.1886-7.8178-11.202-7.8178-17.859 0-7.1046 2.6292-13.062 7.8178-17.929 4.8669-4.8529 10.657-7.2584 17.37-7.2584 7.0486 0 13.062 2.4055 17.873 7.2584 4.8529 4.8669 7.2584 10.825 7.2584 17.929 0 6.657-2.4055 12.671-7.2584 17.859-3.7201 3.7201-8.1954 6.1676-13.384 7.2584z" fill="url(#a)" fill-rule="evenodd"/>
    </g>
    <g fill="#5c4a10">
     <path transform="matrix(.99928 -.037815 .037815 .99928 0 0)" d="m41.236 627.05a9.0668 9.0668 0 0 1 -9.0668 9.0668 9.0668 9.0668 0 0 1 -9.0668 -9.0668 9.0668 9.0668 0 0 1 9.0668 -9.0668 9.0668 9.0668 0 0 1 9.0668 9.0668z" color="#000000" stroke-width="0"/>
     <path d="m51.715 630.14c-5.424 7.4733-4.31 18.8 2.6465 24.926 5.2428-0.97114 8.5358-1.2836 2.9043-4.6719-4.0807-4.3316-4.7742-11.359-1.6445-16.416-1.1194-0.68443-2.7521-6.9166-3.9062-3.8379z"/>
    </g>
   </g>
   <path d="m34.535 664.26c-2.0161 0.0954-3.9685 1.3028-5.3984 3.9219-0.91303 1.6724-1.399 4.1263-1.6055 6.9356 0.09979-0.18782 0.16559-0.54227 0.26953-0.71485 0.85115-1.4133 1.9619-2.46 3.4082-2.5703 1.4463-0.11035 2.68 0.75369 3.6914 1.9551 0.85856 1.0198 1.6377 2.5483 2.4219 4.2363l7.3418 0.72461c-0.70503-4.8616-2.0842-8.624-3.8555-10.939-1.9942-2.607-4.2573-3.6443-6.2734-3.5488z" fill="url(#c)" stroke-width="0"/>
   <path d="m36.034 678.35c1.8819 0.53952 4.4767-2.2681 4.4767-2.2681s3.1015 3.2804 4.4767 3.2418 4.4767-3.4555 4.4767-3.4555 2.9516 3.0273 4.512 2.4818c0 0-0.39381 2.7402 0 5.5427-6.6317 2.2236-11.664 2.2051-17.942 0 1.11-2.9525 0-5.5427 0-5.5427z" fill="url(#b)" stroke-width="0"/>
  </g>
 </g>
</svg>
